{"title":"20-20 - 12-8-2016 - Fast Girl","uid":15639598,"size":335244521,"categoryP":"video","categoryS":"tv_shows","magnet":"?xt=urn:btih:6bdb96d651979c2e260c7b2dfd7593c41e145fff&amp;dn=20-20+-+12-8-2016+-+Fast+Girl&amp;tr=udp%3A%2F%2Ftracker.leechers-paradise.org%3A6969&amp;tr=udp%3A%2F%2Fzer0day.ch%3A1337&amp;tr=udp%3A%2F%2Fopen.demonii.com%3A1337&amp;tr=udp%3A%2F%2Ftracker.coppersurfer.tk%3A6969&amp;tr=udp%3A%2F%2Fexodus.desync.com%3A6969","seeders":2,"leechers":0,"uploader":"Bullrout","files":1,"time":1472005283,"description":"20-20 - 12-8-2016 - Fast Girl\r\n\r\nThree-time Olympic runner Suzy Favor Hamilton talks about leading a double life as a high-priced Las Vegas escort. Elizabeth Vargas speaks to Hamilton's husband, Mark, about staying by her side while knowing about her prostitution.\r\n\r\nComplete name                            : 20-20 - 12-8-2016 - Fast Girl.mp4\r\nFormat                                   : MPEG-4\r\nFormat profile                           : Base Media / Version 2\r\nCodec ID                                 : mp42 (mp42/isom/avc1)\r\nFile size                                : 320 MiB\r\nDuration                                 : 40mn 10s\r\nOverall bit rate mode                    : Variable\r\nOverall bit rate                         : 1 112 Kbps\r\n\r\nVideo\r\nID                                       : 2\r\nFormat                                   : AVC\r\nFormat/Info                              : Advanced Video Codec\r\nFormat profile                           :   \r\nFormat settings, CABAC                   : Yes\r\nFormat settings, ReFrames                : 3 frames\r\nCodec ID                                 : avc1\r\nCodec ID/Info                            : Advanced Video Coding\r\nDuration                                 : 40mn 10s\r\nBit rate mode                            : Variable\r\nBit rate                                 : 981 Kbps\r\nMaximum bit rate                         : 1 000 Kbps\r\nWidth                                    : 720 pixels\r\nHeight                                   : 404 pixels\r\nDisplay aspect ratio                     : 16:9\r\nOriginal display aspect ratio            : 16:9\r\nFrame rate mode                          : Constant\r\nFrame rate                               : 25.000 fps\r\nStandard                                 : PAL\r\nColor space                              : YUV\r\nChroma subsampling                       : 4:2:0\r\nBit depth                                : 8 bits\r\nScan type                                : Progressive\r\nBits/(Pixel*Frame)                       : 0.135\r\nStream size                              : 282 MiB (88%)\r\nWriting library                          : x264 core 112\r\nColor range                              : Limited\r\nColor primaries                          : BT.601 PAL\r\nTransfer characteristics                 : BT.470 System B, BT.470 System G\r\nMatrix coefficients                      : BT.601\r\n\r\nAudio\r\nID                                       : 1\r\nFormat                                   : AAC\r\nFormat/Info                              : Advanced Audio Codec\r\nFormat profile                           : LC\r\nCodec ID                                 : 40\r\nDuration                                 : 40mn 10s\r\nBit rate mode                            : Variable\r\nBit rate                                 : 128 Kbps\r\nMaximum bit rate                         : 576 Kbps\r\nChannel(s)                               : 2 channels\r\nChannel positions                        : Front: L R\r\nSampling rate                            : 48.0 KHz\r\nFrame rate                               : 46.875 fps (1024 spf)\r\nCompression mode                         : Lossy\r\nStream size                              : 36.8 MiB (12%)","torrent":{"xt":"urn:btih:6bdb96d651979c2e260c7b2dfd7593c41e145fff","amp;dn":"20-20+-+12-8-2016+-+Fast+Girl","amp;tr":["udp%3A%2F%2Ftracker.leechers-paradise.org%3A6969","udp%3A%2F%2Fzer0day.ch%3A1337","udp%3A%2F%2Fopen.demonii.com%3A1337","udp%3A%2F%2Ftracker.coppersurfer.tk%3A6969","udp%3A%2F%2Fexodus.desync.com%3A6969"],"infoHash":"6bdb96d651979c2e260c7b2dfd7593c41e145fff","infoHashBuffer":{"type":"Buffer","data":[107,219,150,214,81,151,156,46,38,12,123,45,253,117,147,196,30,20,95,255]},"announce":[],"urlList":[]}}